<?xml version="1.0" encoding="utf-8"?>
<!-- Generator: Adobe Illustrator 25.2.3, SVG Export Plug-In . SVG Version: 6.00 Build 0)  -->
<svg version="1.1" id="Layer_1" xmlns="http://www.w3.org/2000/svg" xmlns:xlink="http://www.w3.org/1999/xlink" x="0px" y="0px"
	 viewBox="0 0 207.1 60.02" style="enable-background:new 0 0 207.1 60.02;" xml:space="preserve">
<style type="text/css">
	.st0{fill-rule:evenodd;clip-rule:evenodd;fill:#2E2018;}
	.st1{fill:#008FCD;}
	.st2{fill-rule:evenodd;clip-rule:evenodd;fill:#FFCB00;}
	.st3{fill-rule:evenodd;clip-rule:evenodd;fill:#95C11F;}
	.st4{fill-rule:evenodd;clip-rule:evenodd;fill:#00515B;}
	.st5{fill-rule:evenodd;clip-rule:evenodd;fill:#A30055;}
	.st6{fill-rule:evenodd;clip-rule:evenodd;fill:#EC6408;}
	.st7{fill-rule:evenodd;clip-rule:evenodd;fill:#00B2BA;}
</style>
<path class="st0" d="M171.65,46.52v-3.64h0h0.9v-0.05c0.14-0.01,0.28-0.03,0.42-0.06c0.42-0.08,0.83-0.19,1.23-0.34
	c0.41-0.15,0.79-0.33,1.17-0.55c0.19-0.11,0.38-0.23,0.57-0.36c0.17-0.12,0.33-0.25,0.49-0.38c0.42-0.34,0.8-0.73,1.13-1.16
	c0.33-0.43,0.61-0.91,0.84-1.41c0.11-0.24,0.21-0.48,0.3-0.73c0.09-0.26,0.17-0.53,0.22-0.81c0.11-0.53,0.17-1.06,0.17-1.6
	c0-0.49-0.04-0.98-0.14-1.47c-0.09-0.47-0.23-0.93-0.41-1.37c-0.38-0.91-0.92-1.71-1.62-2.41c-0.68-0.68-1.47-1.21-2.35-1.6
	c-0.9-0.39-1.86-0.59-2.84-0.59l-0.07,0v-3.64h0.01l0.13,0c0.69,0,1.38,0.08,2.05,0.22c0.7,0.14,1.39,0.35,2.05,0.62
	c0.68,0.28,1.32,0.62,1.93,1.03c0.6,0.4,1.16,0.86,1.67,1.37c0.5,0.5,0.95,1.05,1.35,1.65c0.4,0.59,0.74,1.22,1.02,1.88
	c0.29,0.67,0.5,1.36,0.64,2.08c0.15,0.74,0.22,1.48,0.22,2.23c0,0.81-0.08,1.61-0.26,2.4c-0.09,0.39-0.2,0.78-0.33,1.17
	c-0.13,0.38-0.28,0.75-0.45,1.11c-0.34,0.73-0.76,1.42-1.25,2.07c-0.01,0.01-0.01,0.02-0.02,0.03l-0.03,0.04
	c-0.25,0.29-0.51,0.57-0.77,0.86c-0.27,0.29-0.55,0.57-0.86,0.83c-0.49,0.41-1.02,0.78-1.58,1.09c-0.56,0.32-1.15,0.6-1.75,0.81
	c-0.61,0.22-1.24,0.39-1.87,0.51C172.93,46.46,172.29,46.52,171.65,46.52L171.65,46.52L171.65,46.52z M186.07,46.04h3.58V29.25
	l12.05,16.07l0.53,0.72h4.87V25.01h-3.59v16.79l-12.05-16.07l-0.53-0.72h-4.86V46.04z M46.25,29.46l2.37-2.83
	c-0.38-0.29-0.78-0.57-1.19-0.81c-0.28-0.16-0.57-0.32-0.87-0.46c-0.29-0.14-0.6-0.26-0.9-0.36c-0.62-0.22-1.25-0.4-1.89-0.51
	c-0.32-0.06-0.64-0.09-0.96-0.12c-0.32-0.03-0.64-0.04-0.96-0.04c-0.76,0-1.52,0.07-2.26,0.23c-0.72,0.15-1.43,0.37-2.1,0.65
	c-0.67,0.28-1.3,0.63-1.91,1.03c-0.59,0.4-1.15,0.86-1.66,1.36c-0.52,0.52-0.99,1.08-1.4,1.69c-0.41,0.61-0.75,1.26-1.03,1.94
	c-0.27,0.67-0.49,1.36-0.63,2.07c-0.15,0.73-0.22,1.47-0.22,2.21c0,0.76,0.08,1.51,0.23,2.26c0.15,0.72,0.37,1.43,0.65,2.11
	c0.28,0.67,0.62,1.3,1.03,1.9c0.4,0.6,0.86,1.15,1.37,1.66c0.52,0.52,1.08,0.99,1.69,1.4c0.61,0.41,1.26,0.75,1.94,1.03
	c0.67,0.28,1.36,0.49,2.08,0.64c0.73,0.15,1.47,0.21,2.22,0.21c0.64,0,1.28-0.05,1.92-0.17c0.32-0.06,0.65-0.13,0.97-0.22
	c0.31-0.08,0.62-0.18,0.93-0.29c0.31-0.11,0.61-0.23,0.91-0.37c0.3-0.14,0.59-0.29,0.88-0.45c0.28-0.16,0.56-0.34,0.83-0.53
	c0.26-0.18,0.51-0.37,0.76-0.58l0.68-0.57v-6.19h-3.7v4.42l-0.42,0.26c-0.09,0.06-0.19,0.11-0.29,0.16
	c-0.06,0.03-0.12,0.06-0.18,0.09c-0.23,0.12-0.47,0.22-0.71,0.31c-0.4,0.14-0.81,0.24-1.23,0.32c-0.22,0.04-0.45,0.08-0.68,0.09
	c-0.21,0.01-0.43,0.02-0.64,0.02c-1.01,0-2.01-0.18-2.94-0.58c-0.89-0.38-1.68-0.93-2.37-1.61c-0.35-0.35-0.67-0.72-0.94-1.13
	c-0.27-0.41-0.5-0.85-0.69-1.3c-0.38-0.92-0.56-1.88-0.56-2.87c0-1.01,0.19-2,0.59-2.93c0.39-0.89,0.92-1.7,1.61-2.38
	c0.7-0.7,1.52-1.23,2.43-1.62c0.45-0.19,0.91-0.33,1.38-0.43c0.49-0.1,0.99-0.15,1.5-0.15c0.22,0,0.44,0.01,0.66,0.03
	c0.22,0.02,0.43,0.05,0.65,0.09c0.43,0.08,0.85,0.19,1.26,0.34c0.4,0.15,0.78,0.33,1.16,0.54c0.2,0.11,0.39,0.23,0.57,0.36
	C46.17,29.4,46.21,29.43,46.25,29.46L46.25,29.46z M171.65,24.36V28c-0.47,0.01-0.93,0.06-1.39,0.15c-0.49,0.09-0.98,0.23-1.44,0.42
	c-0.91,0.38-1.71,0.92-2.41,1.62c-0.68,0.68-1.21,1.47-1.6,2.35c-0.4,0.92-0.59,1.9-0.59,2.9c0,0.5,0.04,0.99,0.15,1.48
	c0.1,0.47,0.23,0.93,0.42,1.37c0.38,0.91,0.92,1.72,1.62,2.41c0.68,0.68,1.47,1.21,2.35,1.6c0.92,0.4,1.9,0.59,2.9,0.59v3.64
	c-0.73,0-1.47-0.07-2.19-0.21c-0.7-0.14-1.39-0.35-2.04-0.62c-0.68-0.28-1.32-0.64-1.93-1.04c-0.6-0.4-1.16-0.86-1.67-1.37
	c-0.5-0.5-0.96-1.05-1.35-1.64c-0.4-0.6-0.74-1.23-1.02-1.89c-0.28-0.67-0.5-1.36-0.64-2.08c-0.15-0.74-0.23-1.48-0.23-2.24
	c0-0.74,0.07-1.47,0.22-2.19c0.14-0.7,0.35-1.39,0.62-2.05c0.28-0.67,0.62-1.32,1.03-1.92c0.4-0.6,0.87-1.16,1.38-1.68
	c0.5-0.5,1.06-0.95,1.65-1.34c0.61-0.4,1.25-0.74,1.93-1.02c0.69-0.29,1.4-0.5,2.13-0.65C170.22,24.44,170.93,24.37,171.65,24.36
	L171.65,24.36z M69.95,28.62v-3.6h-5.19v-0.84l-0.47-1.3l-5.88,2.14h-5.03v21.07h16.57v-3.59H56.98v-5.14h8.62v-3.59h-8.62v-5.14
	H69.95L69.95,28.62z M73.54,46.04h3.58V29.25l12.05,16.07l0.53,0.72h4.87V25.01h-3.59v16.79L78.93,25.72l-0.53-0.72h-4.86V46.04
	L73.54,46.04z M114.71,28.62v-3.6h-5.19v-0.84l-0.47-1.3l-5.88,2.14h-5.03v21.07h16.57v-3.59h-12.97v-5.14h8.62v-3.59h-8.62v-5.14
	H114.71L114.71,28.62z M118.24,25.01v3.59h6.42v17.44h3.58V28.6h6.42v-3.59H118.24L118.24,25.01z M141.71,25.01h-3.58v21.03h3.58
	v-8.72h11.68v8.72h3.59V25.01h-3.59v8.72h-11.68V25.01z"/>
<g>
	<path class="st1" d="M76.62,57.83v-1.75h0.54c0.12,0,0.24-0.02,0.34-0.07c0.1-0.04,0.2-0.1,0.3-0.19c0.09-0.09,0.15-0.19,0.19-0.3
		c0.04-0.1,0.07-0.22,0.07-0.34c0-0.13-0.02-0.24-0.07-0.35c-0.04-0.11-0.11-0.2-0.19-0.29c-0.04-0.04-0.09-0.08-0.14-0.11
		c-0.05-0.03-0.1-0.06-0.15-0.09c-0.1-0.04-0.22-0.07-0.34-0.07h-0.54v-1.75h0.54c0.18,0,0.35,0.02,0.52,0.05
		c0.17,0.03,0.33,0.08,0.49,0.15c0.16,0.07,0.31,0.15,0.46,0.25c0.14,0.1,0.28,0.21,0.4,0.33c0.25,0.25,0.44,0.54,0.58,0.86
		c0.14,0.32,0.21,0.66,0.21,1.01c0,0.35-0.07,0.69-0.21,1.01c-0.07,0.16-0.15,0.31-0.25,0.46c-0.1,0.14-0.21,0.28-0.33,0.4
		c-0.05,0.06-0.12,0.12-0.2,0.18c-0.02,0.02-0.05,0.04-0.07,0.05c-0.02,0.01-0.04,0.03-0.07,0.05l1.13,2.4
		c0.01,0.03,0.02,0.06,0,0.09c-0.01,0.03-0.03,0.06-0.06,0.07c-0.03,0.01-0.05,0.01-0.05,0.01h-0.01h-1.65
		c-0.06,0-0.1-0.03-0.12-0.08L77,57.83H76.62z M31.84,52.54h1.49h0.31c0.04,0,0.07,0.01,0.09,0.04c0.02,0.02,0.03,0.06,0.03,0.09
		v1.49c0,0.03-0.01,0.06-0.03,0.09c-0.02,0.02-0.05,0.04-0.09,0.04h-0.18v3.9h0.18c0.04,0,0.07,0.01,0.09,0.04
		c0.02,0.02,0.03,0.06,0.03,0.09v1.49c0,0.03-0.01,0.06-0.03,0.09c-0.02,0.02-0.05,0.04-0.09,0.04h-0.31h-1.49h-0.31
		c-0.03,0-0.06-0.01-0.09-0.04c-0.02-0.02-0.04-0.05-0.04-0.09V58.3c0-0.03,0.01-0.06,0.04-0.09c0.02-0.02,0.05-0.04,0.09-0.04h0.18
		v-3.9h-0.18c-0.03,0-0.06-0.01-0.09-0.04c-0.02-0.02-0.04-0.05-0.04-0.09v-1.49c0-0.03,0.01-0.06,0.04-0.09
		c0.02-0.02,0.05-0.04,0.09-0.04H31.84L31.84,52.54z M76.62,52.54v1.75h-1.43v1.79h1.43v1.75h-1.43v1.96c0,0.03-0.01,0.06-0.03,0.09
		c-0.02,0.02-0.05,0.04-0.09,0.04h-1.5c-0.03,0-0.06-0.01-0.09-0.04c-0.02-0.02-0.04-0.05-0.04-0.09v-6.38v-0.75
		c0-0.03,0.01-0.06,0.04-0.09c0.02-0.02,0.05-0.04,0.09-0.04h0.75H76.62L76.62,52.54z M34.66,59.79v-0.75v-5.64v-0.75
		c0-0.03,0.01-0.06,0.04-0.09c0.02-0.02,0.05-0.04,0.09-0.04h0.75h0.7h0.37c0.05,0,0.08,0.02,0.1,0.05l0.22,0.3l3.37,4.5v-3.97
		v-0.75c0-0.03,0.01-0.06,0.04-0.09c0.02-0.02,0.05-0.04,0.09-0.04h1.49c0.03,0,0.06,0.01,0.09,0.04c0.02,0.02,0.04,0.06,0.04,0.09
		v0.75v5.64v0.75c0,0.03-0.01,0.06-0.04,0.09c-0.02,0.02-0.05,0.04-0.09,0.04h-0.75h-0.7H40.1h-0.01c-0.04,0-0.08-0.02-0.1-0.05
		l-0.22-0.3l-3.37-4.5v3.97v0.75c0,0.03-0.01,0.06-0.04,0.09c-0.02,0.02-0.06,0.04-0.09,0.04h-1.49c-0.03,0-0.06-0.01-0.09-0.04
		C34.67,59.86,34.66,59.83,34.66,59.79L34.66,59.79z M42.93,59.79v-0.75v-5.64v-0.75c0-0.03,0.01-0.06,0.04-0.09
		c0.02-0.02,0.05-0.04,0.09-0.04h0.75h0.7h0.37c0.05,0,0.08,0.02,0.1,0.05l0.22,0.3l3.37,4.5v-3.97v-0.75
		c0-0.03,0.01-0.06,0.04-0.09c0.02-0.02,0.05-0.04,0.09-0.04h1.49c0.03,0,0.06,0.01,0.09,0.04c0.02,0.02,0.04,0.06,0.04,0.09v0.75
		v5.64v0.75c0,0.03-0.01,0.06-0.04,0.09c-0.02,0.02-0.05,0.04-0.09,0.04h-0.75h-0.7h-0.37h-0.01c-0.04,0-0.08-0.02-0.1-0.05
		l-0.22-0.3l-3.37-4.5v3.97v0.75c0,0.03-0.01,0.06-0.04,0.09c-0.02,0.02-0.05,0.04-0.09,0.04h-1.49c-0.03,0-0.06-0.01-0.09-0.04
		C42.94,59.86,42.93,59.83,42.93,59.79L42.93,59.79z M55.07,54.09c-0.28,0-0.55,0.05-0.81,0.16c-0.13,0.05-0.25,0.12-0.37,0.2
		c-0.12,0.08-0.22,0.16-0.32,0.26c-0.19,0.19-0.34,0.42-0.45,0.67c-0.11,0.26-0.17,0.53-0.17,0.83c0,0.28,0.05,0.54,0.16,0.8
		c0.05,0.13,0.12,0.25,0.2,0.37c0.08,0.12,0.16,0.22,0.26,0.32c0.19,0.19,0.42,0.34,0.67,0.45c0.26,0.11,0.53,0.17,0.83,0.17v1.75
		c-0.27,0-0.52-0.03-0.77-0.07c-0.25-0.05-0.49-0.12-0.72-0.21c-0.48-0.19-0.9-0.47-1.26-0.84c-0.35-0.35-0.63-0.76-0.83-1.23
		c-0.2-0.47-0.3-0.97-0.3-1.51c0-0.52,0.1-1.02,0.3-1.48c0.19-0.48,0.47-0.9,0.84-1.26c0.35-0.35,0.77-0.63,1.23-0.83
		c0.47-0.2,0.97-0.3,1.51-0.3V54.09L55.07,54.09z M56.43,57.82c-0.05,0.04-0.1,0.08-0.15,0.11c-0.05,0.03-0.1,0.07-0.16,0.1
		c-0.11,0.06-0.22,0.11-0.33,0.16c-0.06,0.02-0.12,0.04-0.18,0.05c-0.06,0.01-0.12,0.03-0.18,0.04c-0.06,0.01-0.12,0.02-0.18,0.03
		s-0.12,0.01-0.19,0.01v1.75c0.11,0,0.22,0,0.33-0.01c0.11-0.01,0.22-0.02,0.33-0.04c0.11-0.02,0.22-0.04,0.33-0.07
		c0.11-0.03,0.22-0.06,0.32-0.1c0.2-0.07,0.41-0.17,0.61-0.28c0.1-0.06,0.19-0.12,0.28-0.18c0.09-0.06,0.18-0.13,0.27-0.21
		c0.11-0.09,0.21-0.18,0.3-0.29c0.09-0.1,0.18-0.21,0.27-0.31c0,0,0-0.01,0.01-0.01c0.17-0.23,0.32-0.47,0.44-0.72
		c0.06-0.13,0.11-0.26,0.16-0.39c0.04-0.13,0.08-0.27,0.12-0.41c0.06-0.27,0.09-0.55,0.09-0.83c0-0.54-0.1-1.04-0.3-1.51
		c-0.2-0.47-0.48-0.88-0.83-1.23c-0.37-0.37-0.79-0.65-1.26-0.84c-0.47-0.2-0.96-0.3-1.48-0.3v1.76c0.3,0,0.57,0.06,0.82,0.17
		c0.25,0.11,0.48,0.26,0.67,0.45c0.1,0.1,0.19,0.21,0.26,0.32c0.08,0.12,0.14,0.24,0.2,0.37c0.11,0.26,0.16,0.53,0.16,0.81
		c0,0.17-0.02,0.32-0.05,0.46c-0.03,0.14-0.08,0.29-0.15,0.44c-0.03,0.07-0.07,0.14-0.11,0.2c-0.04,0.06-0.08,0.13-0.13,0.19
		c-0.05,0.06-0.1,0.12-0.15,0.17C56.55,57.71,56.49,57.77,56.43,57.82L56.43,57.82z M61.09,52.63l1.43,5.01l1.43-5.02l0.12,0.04
		l-0.12-0.04c0.01-0.06,0.05-0.09,0.12-0.09h1.55c0.04,0,0.07,0.01,0.09,0.04c0.02,0.02,0.03,0.05,0.03,0.09
		c0,0.02,0,0.03-0.01,0.04l-1.88,6.63l-0.15,0.5l-0.12-0.04l0.12,0.04c-0.01,0.06-0.05,0.09-0.12,0.09h-2.14
		c-0.06,0-0.1-0.03-0.12-0.1l-0.14-0.49l-1.89-6.64v0.01c-0.01-0.03-0.01-0.07,0.01-0.1c0.01-0.03,0.04-0.05,0.07-0.06
		c0.01,0,0.02-0.01,0.04-0.01h1.55C61.03,52.54,61.07,52.57,61.09,52.63L61.09,52.63z M72.44,54.28h-4.07v1.08h2.66
		c0.03,0,0.06,0.01,0.09,0.04c0.02,0.02,0.04,0.05,0.04,0.09v1.49c0,0.03-0.01,0.06-0.04,0.09c-0.02,0.02-0.05,0.04-0.09,0.04h-2.66
		v1.08h4.07c0.03,0,0.06,0.01,0.08,0.04c0.02,0.02,0.03,0.05,0.03,0.09v1.49c0,0.03-0.01,0.06-0.03,0.09
		c-0.02,0.02-0.05,0.04-0.08,0.04H67.5h-0.75c-0.03,0-0.06-0.01-0.09-0.04c-0.02-0.02-0.04-0.05-0.04-0.09v-0.75v-5.64v-0.75
		c0-0.03,0.01-0.06,0.04-0.09c0.02-0.02,0.05-0.04,0.09-0.04h0.75h4.94c0.03,0,0.06,0.01,0.08,0.04c0.02,0.02,0.03,0.05,0.03,0.09
		v1.49c0,0.03-0.01,0.06-0.03,0.09C72.5,54.27,72.47,54.28,72.44,54.28z"/>
	<path class="st1" d="M109.39,57.64v-1.19h0.58c0.04,0,0.09,0,0.13-0.01c0.04-0.01,0.09-0.01,0.13-0.02
		c0.04-0.01,0.08-0.02,0.13-0.03c0.04-0.01,0.09-0.03,0.13-0.04c0.04-0.02,0.08-0.04,0.11-0.06c0.04-0.02,0.07-0.04,0.11-0.07
		s0.08-0.05,0.11-0.08c0.03-0.03,0.07-0.06,0.1-0.09l0.07,0.07l-0.07-0.07c0.03-0.03,0.06-0.06,0.09-0.1
		c0.03-0.03,0.06-0.07,0.08-0.1c0.02-0.04,0.05-0.08,0.07-0.12c0.02-0.04,0.04-0.08,0.05-0.12c0.02-0.04,0.04-0.08,0.05-0.12
		c0.01-0.04,0.02-0.09,0.03-0.13c0.01-0.09,0.02-0.18,0.02-0.27c0-0.09-0.01-0.17-0.02-0.26c-0.01-0.04-0.02-0.09-0.03-0.13
		c-0.01-0.04-0.03-0.08-0.05-0.12c-0.01-0.04-0.03-0.08-0.05-0.12c-0.02-0.04-0.04-0.08-0.07-0.12c-0.02-0.03-0.05-0.07-0.08-0.1
		c-0.03-0.03-0.06-0.07-0.09-0.1h-0.01l0.07-0.07l-0.07,0.07c-0.03-0.03-0.07-0.07-0.1-0.09c-0.03-0.03-0.07-0.05-0.11-0.08
		s-0.08-0.05-0.11-0.07c-0.04-0.02-0.08-0.04-0.11-0.06c-0.04-0.02-0.08-0.03-0.13-0.04c-0.04-0.01-0.09-0.02-0.13-0.03
		c-0.08-0.02-0.17-0.03-0.27-0.03h-0.58v-1.19h0.58c0.18,0,0.34,0.02,0.49,0.05c0.17,0.03,0.32,0.08,0.47,0.14
		c0.08,0.03,0.16,0.07,0.23,0.11c0.07,0.04,0.15,0.08,0.21,0.13c0.07,0.04,0.14,0.09,0.2,0.15c0.06,0.05,0.13,0.11,0.18,0.17
		c0.06,0.05,0.11,0.11,0.17,0.18c0.05,0.07,0.1,0.13,0.15,0.2c0.04,0.07,0.09,0.14,0.13,0.21c0.04,0.07,0.07,0.15,0.1,0.23
		c0.07,0.16,0.12,0.32,0.15,0.47c0.03,0.16,0.04,0.33,0.04,0.49c0,0.17-0.01,0.33-0.04,0.49c-0.03,0.16-0.08,0.32-0.15,0.48
		c-0.03,0.07-0.06,0.15-0.1,0.22c-0.04,0.07-0.08,0.15-0.13,0.21c-0.05,0.07-0.1,0.13-0.15,0.2c-0.05,0.06-0.1,0.12-0.16,0.18
		l-0.01,0.01c-0.01,0.01-0.03,0.03-0.04,0.04c-0.01,0.01-0.03,0.03-0.05,0.04c-0.01,0.02-0.03,0.03-0.05,0.04
		c-0.02,0.01-0.03,0.03-0.05,0.04l-0.07,0.04c-0.01,0.01-0.03,0.02-0.06,0.04v0.01l-0.25,0.18l1.14,2.42
		c0.01,0.01,0.01,0.03,0.01,0.05c0,0.07-0.03,0.1-0.1,0.1h-1.08c-0.04,0-0.07-0.02-0.1-0.06l0.1-0.04l-0.09,0.04l-1.05-2.22H109.39z
		 M109.39,52.56v1.19h-1.93v2.7h1.93v1.19h-1.93v2.18c0,0.07-0.03,0.1-0.1,0.1h-0.98c-0.07,0-0.1-0.03-0.1-0.1v-7.15
		c0-0.07,0.03-0.1,0.1-0.1H109.39L109.39,52.56z M94.08,60.16v-1.17h0.11c0.04,0,0.08,0,0.12-0.01c0.04,0,0.08-0.01,0.11-0.01
		c0.04,0,0.07-0.01,0.11-0.01c0.04-0.01,0.08-0.02,0.11-0.03c0.03-0.01,0.07-0.02,0.11-0.03l0.22-0.07
		c0.04-0.01,0.07-0.03,0.11-0.04c0.03-0.01,0.07-0.03,0.11-0.04c0.06-0.03,0.13-0.07,0.2-0.11c0.03-0.02,0.07-0.04,0.1-0.06
		c0.03-0.02,0.07-0.04,0.1-0.06c0.03-0.02,0.06-0.05,0.09-0.07c0.03-0.02,0.06-0.05,0.09-0.07c0.07-0.06,0.15-0.12,0.21-0.19
		c0.06-0.06,0.12-0.13,0.18-0.22c0.05-0.07,0.11-0.15,0.16-0.23v-0.01c0.04-0.07,0.09-0.15,0.13-0.25l0.1,0.04l-0.1-0.04
		c0.04-0.09,0.08-0.18,0.11-0.27c0.01-0.04,0.03-0.09,0.04-0.14c0.01-0.05,0.03-0.09,0.04-0.14c0.01-0.05,0.02-0.1,0.02-0.14
		c0-0.04,0.01-0.09,0.02-0.14c0-0.05,0.01-0.1,0.01-0.14c0-0.05,0-0.1,0-0.15c0-0.08,0-0.17-0.01-0.26
		c-0.01-0.09-0.02-0.17-0.04-0.26c-0.03-0.17-0.08-0.33-0.15-0.49c-0.07-0.17-0.15-0.32-0.24-0.46c-0.05-0.07-0.1-0.14-0.15-0.21
		c-0.05-0.07-0.11-0.13-0.17-0.19h-0.01c-0.13-0.12-0.26-0.23-0.41-0.33c-0.14-0.1-0.29-0.18-0.45-0.25
		c-0.32-0.13-0.65-0.2-1.01-0.2v-1.18c0.13,0,0.25,0.01,0.37,0.02c0.12,0.01,0.25,0.03,0.37,0.06c0.12,0.02,0.25,0.05,0.37,0.09
		c0.12,0.03,0.24,0.08,0.35,0.13c0.23,0.1,0.45,0.22,0.66,0.35c0.2,0.13,0.39,0.29,0.58,0.48c0.36,0.36,0.64,0.77,0.83,1.24
		c0.2,0.47,0.3,0.95,0.3,1.45c0,0.07,0,0.14-0.01,0.21c-0.01,0.07-0.01,0.14-0.01,0.21v0.01c-0.01,0.07-0.02,0.14-0.03,0.2
		c-0.01,0.07-0.03,0.13-0.04,0.2c-0.03,0.13-0.07,0.27-0.11,0.41c-0.04,0.12-0.09,0.25-0.16,0.38c-0.03,0.06-0.06,0.13-0.09,0.18
		c-0.03,0.06-0.06,0.12-0.1,0.18c-0.04,0.06-0.08,0.12-0.12,0.18c-0.04,0.06-0.08,0.11-0.12,0.17l-0.01,0.01l-0.01,0.01
		c-0.09,0.11-0.18,0.21-0.27,0.3c-0.05,0.05-0.1,0.1-0.14,0.15c-0.05,0.05-0.1,0.09-0.15,0.14l-0.27,0.2
		c-0.08,0.06-0.18,0.12-0.28,0.18c-0.11,0.06-0.21,0.12-0.3,0.16c-0.05,0.02-0.11,0.05-0.15,0.07c-0.05,0.02-0.1,0.04-0.15,0.05
		c-0.05,0.02-0.11,0.04-0.16,0.06c-0.05,0.02-0.1,0.03-0.16,0.04c-0.05,0.01-0.11,0.03-0.16,0.04c-0.05,0.01-0.11,0.02-0.16,0.03
		c-0.11,0.02-0.22,0.04-0.33,0.04c-0.05,0-0.11,0.01-0.17,0.01C94.19,60.16,94.14,60.16,94.08,60.16L94.08,60.16z M104.3,52.53h0.99
		c0.07,0,0.1,0.03,0.1,0.1v4.24c0,0.2-0.02,0.42-0.06,0.64c-0.02,0.1-0.05,0.21-0.09,0.31c-0.03,0.1-0.07,0.21-0.11,0.31
		c-0.08,0.2-0.18,0.39-0.3,0.57c-0.06,0.09-0.12,0.18-0.19,0.26c-0.07,0.08-0.14,0.16-0.22,0.24c-0.15,0.15-0.32,0.29-0.5,0.41
		c-0.18,0.12-0.37,0.22-0.57,0.3c-0.1,0.04-0.2,0.07-0.3,0.1c-0.1,0.03-0.21,0.05-0.32,0.07c-0.21,0.04-0.42,0.07-0.64,0.07
		c-0.22,0-0.43-0.02-0.64-0.07c-0.11-0.02-0.21-0.04-0.32-0.07c-0.1-0.03-0.2-0.06-0.3-0.1c-0.2-0.08-0.39-0.18-0.57-0.3
		c-0.09-0.06-0.17-0.13-0.26-0.2c-0.08-0.07-0.16-0.14-0.24-0.21c0-0.01-0.01-0.01-0.01-0.01c-0.08-0.08-0.15-0.16-0.22-0.24
		c-0.07-0.08-0.13-0.17-0.2-0.26c-0.12-0.18-0.22-0.37-0.3-0.57c-0.04-0.1-0.07-0.21-0.11-0.31c-0.03-0.1-0.06-0.21-0.08-0.31
		c-0.04-0.21-0.07-0.43-0.07-0.64v-4.24c0-0.07,0.03-0.1,0.1-0.1h0.99c0.07,0,0.1,0.03,0.1,0.1v4.24c0,0.14,0.01,0.28,0.04,0.41
		c0.01,0.07,0.03,0.14,0.05,0.2c0.02,0.06,0.05,0.13,0.07,0.19c0.02,0.06,0.05,0.13,0.08,0.18c0.03,0.06,0.07,0.12,0.11,0.18
		c0.04,0.05,0.08,0.11,0.12,0.16c0.04,0.05,0.09,0.11,0.14,0.15c0.1,0.11,0.2,0.2,0.32,0.27c0.11,0.07,0.23,0.14,0.36,0.19
		c0.06,0.02,0.13,0.05,0.19,0.07c0.06,0.02,0.13,0.04,0.2,0.05c0.14,0.03,0.28,0.04,0.41,0.04c0.14,0,0.28-0.01,0.41-0.04
		c0.07-0.01,0.14-0.03,0.2-0.05c0.06-0.02,0.13-0.05,0.19-0.07c0.13-0.05,0.25-0.12,0.36-0.19c0.06-0.04,0.11-0.08,0.17-0.12
		c0.05-0.04,0.1-0.09,0.16-0.14c0.09-0.09,0.18-0.2,0.26-0.32c0.04-0.06,0.08-0.12,0.11-0.18c0.03-0.06,0.06-0.12,0.08-0.18
		c0.03-0.06,0.05-0.13,0.07-0.19c0.02-0.06,0.04-0.13,0.05-0.2c0.01-0.07,0.02-0.14,0.03-0.21c0.01-0.07,0.01-0.14,0.01-0.21v-4.24
		C104.2,52.56,104.23,52.53,104.3,52.53z M86.53,52.56h0.58c0.18,0,0.34,0.02,0.49,0.05c0.17,0.03,0.32,0.08,0.47,0.14
		c0.08,0.03,0.16,0.07,0.23,0.11c0.07,0.04,0.15,0.08,0.21,0.13c0.13,0.09,0.26,0.19,0.38,0.31c0,0,0.01,0,0.01,0.01
		c0.06,0.05,0.11,0.11,0.17,0.18c0.05,0.07,0.1,0.13,0.15,0.2c0.04,0.07,0.09,0.14,0.13,0.21c0.04,0.07,0.07,0.15,0.1,0.23
		c0.07,0.16,0.12,0.32,0.15,0.47c0.03,0.16,0.04,0.33,0.04,0.49c0,0.17-0.01,0.33-0.04,0.49c-0.03,0.16-0.08,0.32-0.15,0.48
		c-0.03,0.07-0.06,0.15-0.1,0.22c-0.04,0.07-0.08,0.15-0.13,0.21c-0.1,0.14-0.2,0.27-0.32,0.38c-0.12,0.12-0.25,0.22-0.38,0.32
		c-0.07,0.04-0.14,0.09-0.21,0.13c-0.07,0.04-0.15,0.08-0.23,0.11c-0.08,0.03-0.16,0.06-0.23,0.08c-0.08,0.02-0.16,0.04-0.24,0.06
		c-0.15,0.03-0.32,0.05-0.49,0.05h-0.58v-1.19h0.58c0.04,0,0.09,0,0.13-0.01c0.04-0.01,0.09-0.01,0.13-0.02
		c0.04-0.01,0.08-0.02,0.13-0.03c0.04-0.01,0.09-0.03,0.13-0.04c0.04-0.02,0.08-0.04,0.11-0.06c0.04-0.02,0.08-0.04,0.11-0.07
		c0.04-0.02,0.08-0.05,0.11-0.08c0.03-0.03,0.07-0.06,0.1-0.09c0.03-0.03,0.06-0.06,0.09-0.1c0.03-0.03,0.06-0.07,0.08-0.1
		c0.02-0.04,0.05-0.08,0.07-0.12c0.02-0.04,0.04-0.08,0.05-0.12c0.02-0.04,0.04-0.08,0.05-0.12c0.01-0.04,0.02-0.09,0.03-0.13
		c0.01-0.09,0.02-0.18,0.02-0.27c0-0.09-0.01-0.17-0.02-0.26c-0.01-0.04-0.02-0.09-0.03-0.13c-0.01-0.04-0.03-0.08-0.05-0.12
		c-0.01-0.04-0.03-0.08-0.05-0.12c-0.02-0.04-0.04-0.08-0.07-0.12c-0.04-0.06-0.1-0.13-0.17-0.2l0.07-0.07l-0.07,0.07
		c-0.03-0.03-0.07-0.07-0.1-0.09c-0.03-0.03-0.07-0.05-0.11-0.08c-0.04-0.02-0.08-0.05-0.11-0.07c-0.04-0.02-0.07-0.04-0.11-0.06
		c-0.04-0.02-0.08-0.03-0.13-0.04c-0.04-0.01-0.09-0.02-0.13-0.03c-0.08-0.02-0.17-0.03-0.27-0.03h-0.58V52.56L86.53,52.56z
		 M94.08,52.53v1.18h0c-0.08,0-0.17,0-0.26,0.01c-0.09,0.01-0.17,0.02-0.26,0.04c-0.16,0.02-0.32,0.07-0.49,0.15
		c-0.08,0.03-0.16,0.07-0.23,0.11c-0.08,0.04-0.15,0.08-0.22,0.13c-0.07,0.05-0.14,0.1-0.21,0.15c-0.07,0.05-0.13,0.11-0.19,0.17
		l-0.01,0.01c-0.12,0.13-0.23,0.26-0.32,0.41c-0.1,0.14-0.18,0.29-0.25,0.45c-0.13,0.31-0.2,0.64-0.2,1c0,0.09,0,0.18,0.01,0.27
		c0.01,0.09,0.02,0.17,0.04,0.26c0.03,0.17,0.08,0.33,0.15,0.49c0.07,0.17,0.15,0.32,0.24,0.46c0.05,0.07,0.1,0.14,0.15,0.21
		c0.05,0.07,0.11,0.13,0.17,0.19c0.13,0.12,0.27,0.23,0.41,0.33c0.14,0.1,0.29,0.18,0.45,0.25c0.32,0.13,0.65,0.2,1.01,0.2h0v1.17h0
		c-0.26,0-0.5-0.02-0.75-0.07c-0.26-0.05-0.49-0.12-0.71-0.21c-0.24-0.09-0.46-0.21-0.66-0.35c-0.1-0.07-0.2-0.14-0.3-0.22
		c-0.1-0.08-0.19-0.17-0.27-0.25c-0.36-0.35-0.64-0.77-0.83-1.24c-0.09-0.23-0.16-0.47-0.21-0.71c-0.05-0.24-0.07-0.49-0.07-0.75
		c0-0.12,0.01-0.25,0.02-0.37c0.01-0.12,0.03-0.25,0.06-0.37c0.04-0.24,0.12-0.48,0.21-0.72c0.09-0.24,0.21-0.46,0.35-0.66
		c0.07-0.1,0.14-0.2,0.23-0.3c0.08-0.1,0.17-0.19,0.25-0.28c0.18-0.18,0.37-0.34,0.58-0.48c0.21-0.14,0.43-0.26,0.66-0.35
		c0.23-0.09,0.47-0.17,0.72-0.21C93.58,52.55,93.83,52.53,94.08,52.53L94.08,52.53z M83.41,59.82v-7.15c0-0.07,0.03-0.1,0.1-0.1
		h3.01v1.19H84.6v2.7h1.93v1.19H84.6v2.18c0,0.07-0.03,0.1-0.1,0.1h-0.98C83.45,59.92,83.41,59.88,83.41,59.82z"/>
	<path class="st1" d="M151.73,57.83v-1.75h0.54c0.12,0,0.24-0.02,0.34-0.07c0.1-0.04,0.2-0.1,0.3-0.19c0.09-0.09,0.15-0.19,0.19-0.3
		c0.04-0.1,0.07-0.22,0.07-0.34c0-0.13-0.02-0.24-0.07-0.35c-0.04-0.11-0.11-0.2-0.19-0.29c-0.04-0.04-0.09-0.08-0.14-0.11
		c-0.05-0.03-0.1-0.06-0.15-0.09c-0.1-0.04-0.22-0.07-0.34-0.07h-0.54v-1.75h0.54c0.18,0,0.35,0.02,0.52,0.05
		c0.17,0.03,0.33,0.08,0.49,0.15c0.16,0.07,0.31,0.15,0.46,0.25c0.14,0.1,0.28,0.21,0.4,0.33c0.25,0.25,0.44,0.54,0.58,0.86
		c0.14,0.32,0.21,0.66,0.21,1.01c0,0.35-0.07,0.69-0.21,1.01c-0.07,0.16-0.15,0.31-0.25,0.46c-0.1,0.14-0.21,0.28-0.33,0.4
		c-0.05,0.06-0.12,0.12-0.2,0.18c-0.02,0.02-0.05,0.04-0.07,0.05c-0.02,0.01-0.04,0.03-0.07,0.05l1.13,2.4
		c0.01,0.03,0.02,0.06,0,0.09c-0.01,0.03-0.03,0.06-0.06,0.07c-0.03,0.01-0.05,0.01-0.05,0.01h-0.01h-1.65
		c-0.06,0-0.1-0.03-0.12-0.08l-0.94-2.01H151.73z M151.73,52.54v1.75h-1.43v1.79h1.43v1.75h-1.43v1.96c0,0.03-0.01,0.06-0.03,0.09
		c-0.02,0.02-0.05,0.04-0.09,0.04h-1.5c-0.03,0-0.06-0.01-0.09-0.04c-0.02-0.02-0.04-0.05-0.04-0.09v-6.38v-0.75
		c0-0.03,0.01-0.06,0.04-0.09c0.02-0.02,0.05-0.04,0.09-0.04h0.75H151.73L151.73,52.54z M141.2,57.83v-1.75h0.54
		c0.12,0,0.24-0.02,0.34-0.07c0.1-0.04,0.2-0.1,0.3-0.19c0.09-0.09,0.15-0.19,0.19-0.3c0.04-0.1,0.07-0.22,0.07-0.34
		c0-0.13-0.02-0.24-0.07-0.35c-0.04-0.11-0.11-0.2-0.19-0.29c-0.04-0.04-0.09-0.08-0.14-0.11c-0.05-0.03-0.1-0.06-0.16-0.09
		c-0.1-0.04-0.22-0.07-0.34-0.07h-0.54v-1.75h0.54c0.18,0,0.35,0.02,0.52,0.05c0.17,0.03,0.33,0.08,0.49,0.15
		c0.16,0.07,0.31,0.15,0.46,0.25c0.14,0.1,0.28,0.21,0.4,0.33c0.25,0.25,0.44,0.54,0.58,0.86c0.14,0.32,0.21,0.66,0.21,1.01
		c0,0.35-0.07,0.69-0.21,1.01c-0.07,0.16-0.15,0.31-0.25,0.46c-0.1,0.14-0.21,0.28-0.33,0.4c-0.05,0.06-0.12,0.12-0.2,0.18
		c-0.02,0.02-0.05,0.04-0.07,0.05c-0.02,0.01-0.04,0.03-0.07,0.05l1.13,2.4c0.01,0.03,0.02,0.06,0,0.09
		c-0.01,0.03-0.03,0.06-0.06,0.07c-0.03,0.01-0.05,0.01-0.05,0.01h-0.01h-1.65c-0.06,0-0.1-0.03-0.12-0.08l-0.94-2.01H141.2
		L141.2,57.83z M145.74,52.54h1.49h0.31c0.04,0,0.07,0.01,0.09,0.04c0.02,0.02,0.03,0.05,0.03,0.09v1.49c0,0.03-0.01,0.06-0.03,0.09
		c-0.02,0.02-0.05,0.04-0.09,0.04h-0.18v3.9h0.18c0.04,0,0.07,0.01,0.09,0.04c0.02,0.02,0.03,0.05,0.03,0.09v1.49
		c0,0.03-0.01,0.06-0.03,0.09c-0.02,0.02-0.05,0.04-0.09,0.04h-0.31h-1.49h-0.31c-0.03,0-0.06-0.01-0.09-0.04
		c-0.02-0.02-0.04-0.05-0.04-0.09V58.3c0-0.03,0.01-0.06,0.04-0.09c0.02-0.02,0.05-0.04,0.09-0.04h0.18v-3.9h-0.18
		c-0.03,0-0.06-0.01-0.09-0.04c-0.02-0.02-0.04-0.05-0.04-0.09v-1.49c0-0.03,0.01-0.06,0.04-0.09c0.02-0.02,0.05-0.04,0.09-0.04
		H145.74z M121.29,54.59c-0.05-0.04-0.1-0.08-0.14-0.11c-0.05-0.04-0.1-0.07-0.15-0.1c-0.12-0.06-0.23-0.12-0.34-0.16
		c-0.05-0.02-0.11-0.04-0.17-0.06c-0.06-0.02-0.12-0.03-0.18-0.04c-0.11-0.02-0.24-0.03-0.38-0.03c-0.29,0-0.56,0.05-0.82,0.16
		c-0.26,0.1-0.49,0.26-0.69,0.47c-0.2,0.19-0.35,0.42-0.46,0.68c-0.11,0.26-0.17,0.54-0.17,0.83c0,0.29,0.05,0.56,0.16,0.82
		c0.1,0.26,0.26,0.49,0.47,0.69c0.19,0.2,0.42,0.35,0.68,0.46c0.26,0.11,0.54,0.17,0.83,0.17c0.14,0,0.26-0.01,0.38-0.03
		c0.06-0.01,0.12-0.02,0.18-0.04c0.06-0.01,0.12-0.03,0.17-0.06c0.03-0.01,0.07-0.02,0.1-0.04c0.03-0.01,0.06-0.03,0.1-0.04
		c0.02-0.01,0.04-0.02,0.06-0.03c0.02-0.01,0.04-0.02,0.07-0.03v-1.43c0-0.04,0.01-0.07,0.04-0.09c0.02-0.02,0.05-0.03,0.09-0.03
		h1.52c0.04,0,0.07,0.01,0.1,0.03c0.02,0.02,0.04,0.05,0.04,0.09v1.89v0.35c0,0.04-0.02,0.07-0.05,0.1l-0.27,0.23
		c-0.08,0.07-0.17,0.14-0.27,0.21c-0.09,0.06-0.19,0.13-0.29,0.18c-0.2,0.11-0.41,0.21-0.62,0.29c-0.11,0.03-0.22,0.07-0.33,0.09
		c-0.11,0.03-0.22,0.05-0.33,0.08c-0.11,0.02-0.23,0.03-0.34,0.04c-0.11,0.01-0.23,0.01-0.34,0.01c-0.27,0-0.52-0.02-0.77-0.07
		c-0.25-0.05-0.49-0.12-0.73-0.21c-0.48-0.2-0.91-0.48-1.27-0.85c-0.35-0.35-0.63-0.77-0.84-1.24c-0.2-0.48-0.31-0.98-0.31-1.53
		c0-0.52,0.1-1.02,0.3-1.5c0.2-0.48,0.48-0.9,0.85-1.27c0.35-0.35,0.77-0.63,1.24-0.84c0.47-0.2,0.98-0.31,1.53-0.31
		c0.11,0,0.23,0,0.34,0.01c0.11,0.01,0.23,0.02,0.34,0.04c0.23,0.04,0.45,0.1,0.66,0.18c0.21,0.08,0.42,0.18,0.62,0.29
		c0.1,0.06,0.19,0.12,0.29,0.18c0.09,0.06,0.18,0.13,0.27,0.21l-0.08,0.1l0.08-0.1c0.03,0.02,0.05,0.05,0.05,0.09
		c0,0.03-0.01,0.06-0.03,0.09l-0.01,0.01l-0.97,1.16c-0.02,0.03-0.05,0.05-0.09,0.05C121.35,54.62,121.32,54.61,121.29,54.59
		L121.29,54.59L121.29,54.59z M141.2,52.54v1.75h-1.43v1.79h1.43v1.75h-1.43v1.96c0,0.03-0.01,0.06-0.03,0.09
		c-0.02,0.02-0.05,0.04-0.09,0.04h-1.5c-0.03,0-0.06-0.01-0.09-0.04c-0.02-0.02-0.04-0.05-0.04-0.09v-6.38v-0.75
		c0-0.03,0.01-0.06,0.04-0.09c0.02-0.02,0.05-0.04,0.09-0.04h0.75H141.2L141.2,52.54z M130.3,56.85c0,0.44-0.08,0.87-0.25,1.27
		c-0.17,0.41-0.41,0.77-0.72,1.09c-0.15,0.15-0.32,0.29-0.5,0.41c-0.18,0.12-0.37,0.22-0.58,0.31c-0.41,0.17-0.83,0.25-1.28,0.25
		c-0.44,0-0.87-0.08-1.27-0.25c-0.21-0.08-0.4-0.19-0.58-0.31c-0.18-0.12-0.35-0.26-0.51-0.41c-0.15-0.16-0.29-0.33-0.41-0.51
		c-0.12-0.18-0.23-0.37-0.31-0.58c-0.17-0.4-0.25-0.83-0.25-1.27V52.7c0-0.03,0.01-0.06,0.04-0.09c0.02-0.02,0.05-0.04,0.09-0.04
		h1.5c0.04,0,0.07,0.01,0.09,0.04c0.02,0.02,0.03,0.05,0.03,0.09v4.15c0,0.21,0.04,0.41,0.12,0.61c0.08,0.19,0.19,0.36,0.35,0.51
		c0.15,0.15,0.32,0.27,0.51,0.35c0.2,0.08,0.4,0.12,0.61,0.12c0.21,0,0.41-0.04,0.61-0.12c0.2-0.08,0.37-0.2,0.51-0.35
		c0.15-0.15,0.27-0.32,0.35-0.51c0.08-0.2,0.12-0.4,0.12-0.61V52.7c0-0.03,0.01-0.06,0.04-0.09c0.02-0.02,0.05-0.04,0.09-0.04h1.5
		c0.04,0,0.07,0.01,0.09,0.04c0.02,0.02,0.03,0.05,0.03,0.09V56.85L130.3,56.85z M137.01,54.29h-4.08v1.09h2.67
		c0.03,0,0.06,0.01,0.09,0.03c0.02,0.02,0.04,0.05,0.04,0.08v1.5c0,0.03-0.01,0.06-0.04,0.09c-0.02,0.02-0.05,0.04-0.09,0.04h-2.67
		v1.08h4.08c0.03,0,0.06,0.01,0.09,0.04c0.02,0.02,0.04,0.05,0.04,0.09v1.5c0,0.03-0.01,0.06-0.04,0.08
		c-0.02,0.02-0.05,0.03-0.09,0.03h-4.95h-0.75c-0.03,0-0.06-0.01-0.09-0.03c-0.02-0.02-0.04-0.05-0.04-0.08v-0.75v-5.65v-0.75
		c0-0.04,0.01-0.07,0.04-0.09c0.02-0.02,0.05-0.03,0.09-0.03h0.75h1l2.02-0.74c0.03-0.01,0.06-0.01,0.08,0
		c0.03,0.01,0.05,0.03,0.06,0.06l0.22,0.62c0,0.01,0.01,0.03,0.01,0.06h1.56c0.03,0,0.06,0.01,0.09,0.03
		c0.02,0.02,0.04,0.05,0.04,0.09v1.49c0,0.04-0.01,0.07-0.04,0.09C137.07,54.27,137.04,54.29,137.01,54.29z"/>
</g>
<path class="st1" d="M0.77,33.48h23.41h0.01c0.21,0,0.39,0.08,0.53,0.23c0.15,0.15,0.23,0.33,0.23,0.54l0.01,3.42
	c0,0.21-0.08,0.39-0.23,0.54c-0.15,0.15-0.33,0.23-0.54,0.23H0.78c-0.21,0-0.39-0.08-0.54-0.23c-0.15-0.15-0.23-0.33-0.23-0.54
	L0,34.25c0-0.21,0.08-0.39,0.23-0.54C0.37,33.56,0.55,33.48,0.77,33.48L0.77,33.48z"/>
<path class="st2" d="M19.63,12.49c0.47,0.99,0.81,2.16,0.87,3.37c-0.15-0.96-0.41-1.77-0.87-2.62V12.49L19.63,12.49z M19.63,19.78
	v-0.16l0.01-0.03c0.06-0.1,0.12-0.21,0.18-0.31c0.31-0.63,0.51-1.2,0.61-1.79c-0.02,0.28-0.05,0.55-0.11,0.83
	c-0.11,0.33-0.24,0.66-0.42,1.01C19.82,19.48,19.72,19.63,19.63,19.78L19.63,19.78z M19.63,19.33c0.11-0.37,0.22-0.74,0.3-1.11
	c0.05-0.35,0.07-0.7,0.07-1.06l0-0.04l0.08,0l0,0.04c0.04,0.35,0,0.73-0.07,1.08c-0.04,0.28-0.11,0.56-0.2,0.84
	c-0.03,0.1-0.07,0.2-0.1,0.3l-0.02,0.07c-0.01,0.02-0.01,0.04-0.02,0.05c0.43-0.73,0.67-1.51,0.78-2.29c0-0.35-0.02-0.72-0.07-1.11
	c-0.12-0.95-0.35-1.74-0.75-2.56V19.33L19.63,19.33z M19.63,12.45c0.54,1.16,0.78,2.12,0.89,3.24c0.01,0.14,0.01,0.27,0.02,0.41
	c0.02,0.16,0.04,0.33,0.05,0.49c0.01,0.12,0.01,0.24,0.01,0.36c0.03-0.4,0.03-0.81,0-1.26c-0.04-0.37-0.09-0.72-0.16-1.06
	l-0.07-0.28c-0.04-0.13-0.09-0.32-0.11-0.46c-0.15-0.51-0.36-1.01-0.62-1.55l-0.01-0.01V12.45z M18.09,10.28
	c0.15,0.13,0.28,0.27,0.41,0.41l0.01-0.01C18.39,10.54,18.25,10.41,18.09,10.28L18.09,10.28L18.09,10.28z M18.09,10.29
	c0.13,0.12,0.27,0.26,0.4,0.42l-0.01,0.01l0.03,0.03c0.04,0.05,0.09,0.09,0.13,0.14c0.35,0.44,0.69,0.99,0.98,1.61v0.75
	c-0.05-0.09-0.1-0.19-0.16-0.28c-0.36-0.6-0.8-1.31-1.37-1.76V10.29L18.09,10.29z M19.63,12.32c-0.06-0.12-0.13-0.23-0.19-0.35
	c-0.21-0.3-0.42-0.61-0.48-0.74c-0.06-0.08-0.13-0.15-0.19-0.22c0.32,0.42,0.58,0.89,0.83,1.35l0.04,0.09V12.32L19.63,12.32z
	 M19.63,13.54c-0.08-0.17-0.18-0.35-0.28-0.52c-0.23-0.41-0.49-0.85-0.82-1.19c-0.1-0.1-0.21-0.2-0.31-0.3l-0.13-0.12v9.59
	c0.47-0.49,0.84-1.06,1.1-1.8l0.01-0.04c0.1-0.41,0.21-0.84,0.26-1.26c0.04-0.49,0-0.94-0.07-1.43l-0.01-0.04l0.08-0.01l0.01,0.04
	c0.09,0.49,0.13,0.95,0.07,1.45c-0.01,0.08-0.02,0.15-0.02,0.23c-0.04,0.36-0.12,0.7-0.24,1.05l-0.01,0.04
	c-0.02,0.09-0.04,0.17-0.07,0.25l0.04,0.02l-0.02,0.04c-0.09,0.2-0.19,0.4-0.29,0.58c-0.22,0.39-0.5,0.73-0.84,1.06l-0.01,0.01v0.11
	c0.5-0.39,0.91-0.82,1.23-1.27c0.1-0.19,0.19-0.39,0.27-0.6l0.03-0.07l0-0.01V13.54L19.63,13.54z M19.63,19.62v0.16
	c-0.05,0.08-0.1,0.15-0.15,0.22C19.53,19.88,19.58,19.75,19.63,19.62L19.63,19.62z M18.09,21.43v-0.12
	c0.44-0.34,0.83-0.72,1.17-1.18c-0.12,0.22-0.25,0.42-0.4,0.62C18.63,20.99,18.37,21.22,18.09,21.43z M14.65,8.57
	c0.21-0.03,0.42-0.06,0.64-0.08c0,0,0.08-0.01,0.08-0.01c-0.01,0-0.09,0.03-0.09,0.02c-0.23,0.05-0.44,0.08-0.64,0.11V8.57
	L14.65,8.57z M14.65,8.69c0.2-0.02,0.4-0.03,0.61-0.04c0,0,0.1,0,0.1,0c-0.01,0-0.1,0.02-0.1,0.02l-0.61,0.07V8.69L14.65,8.69z
	 M14.65,8.74c1.33,0.09,1.02,0.04,2.87,0.41c-0.82-0.1-1.44-0.22-2.29-0.24c-0.19,0-0.36,0-0.54,0.01c1.17,0.09,2.3,0.47,3.25,1.23
	c0.06,0.04,0.11,0.09,0.16,0.13v0c-0.05-0.04-0.11-0.09-0.16-0.13c0.05,0.04,0.11,0.09,0.16,0.14v0.91
	c-0.08-0.06-0.15-0.12-0.23-0.17L17.89,11l-0.03-0.03c-0.7-0.73-1.47-1.12-2.45-1.38c-0.26-0.07-0.51-0.12-0.76-0.16V9.42
	c0.16,0.02,0.33,0.04,0.49,0.07l0.04,0.01l0.01-0.08l-0.04-0.01c-0.17-0.03-0.34-0.06-0.51-0.08V8.74L14.65,8.74z M18.09,11.42
	c-0.11-0.11-0.22-0.23-0.33-0.35l-0.19-0.21l0.11,0.07c-0.04-0.03-0.07-0.06-0.11-0.1l-0.04,0.05l-0.06-0.05
	c-0.64-0.53-1.3-0.81-2.11-1.01c-0.25-0.06-0.49-0.1-0.72-0.13V9.7c0.16,0.02,0.32,0.05,0.48,0.08l0.04,0.01l-0.02,0.08l-0.04-0.01
	c-0.16-0.03-0.31-0.06-0.47-0.08v13.2c0.13-0.03,0.27-0.06,0.4-0.1c0.54-0.19,1.06-0.44,1.58-0.76c0.56-0.34,1.05-0.7,1.46-1.12
	V11.42L18.09,11.42z M18.09,21.18v0.11c-0.14,0.11-0.29,0.22-0.45,0.33C17.8,21.48,17.95,21.34,18.09,21.18L18.09,21.18z
	 M18.09,21.31v0.12c-0.35,0.27-0.74,0.51-1.17,0.74c0.11-0.08,0.22-0.16,0.32-0.24c0.12-0.09,0.24-0.18,0.36-0.28
	C17.77,21.54,17.94,21.43,18.09,21.31L18.09,21.31z M14.65,9.61c0.21,0.03,0.43,0.06,0.66,0.11C15.08,9.67,14.87,9.63,14.65,9.61
	L14.65,9.61z M14.18,8.35c-0.19,0.09-0.49,0.18-0.81,0.28c0.09,0.01,0.18,0.02,0.27,0.03c0.12,0.01,0.23,0.02,0.33,0.03
	c0.22-0.05,0.45-0.09,0.68-0.12v0.05L14.14,8.7c0.1,0.01,0.18,0.01,0.27,0.02c0.08-0.01,0.16-0.02,0.24-0.03v0.04l0,0l0,0v0.59
	l-0.1-0.01l0-0.08l-0.02,0l0-0.06l-0.04,0c-0.54-0.01-1.03,0.02-1.54,0.11c-0.17,0.02-0.33,0.05-0.5,0.08
	c-0.98,0.2-1.78,0.49-2.62,1.02c-0.04,0.02-0.08,0.05-0.11,0.07c-0.83,0.52-1.46,1.07-1.94,1.95c-0.08,0.14-0.14,0.28-0.2,0.43
	c0.04-0.25,0.09-0.5,0.17-0.74c0.37-0.88,0.88-1.56,1.61-2.17c0.03-0.03,0.17-0.15,0.07,0.1c0,0-0.06,0.09-0.07,0.09
	c-0.51,0.64-0.9,1.05-1.27,1.72c0.48-0.75,1.24-1.41,2.15-1.91c0.28-0.19,0.57-0.36,0.73-0.4C10.95,9.54,10.9,9.57,10.9,9.6
	c0.11-0.05,0.23-0.1,0.35-0.14c0.22-0.11,0.44-0.22,0.67-0.32c-0.02-0.02-0.04-0.03-0.08-0.04c-0.02-0.14,0.24-0.27,0.33-0.31
	c0.34-0.13,0.7-0.16,1.06-0.15C13.54,8.53,13.85,8.44,14.18,8.35L14.18,8.35z M14.65,9.44V9.42c-0.21-0.02-0.41-0.04-0.62-0.04
	C14.24,9.39,14.44,9.41,14.65,9.44L14.65,9.44z M14.65,9.6C14.43,9.57,14.21,9.56,14,9.55l0,0.01C14.21,9.57,14.43,9.58,14.65,9.6
	L14.65,9.6L14.65,9.6z M14.65,9.69c-0.15-0.02-0.3-0.03-0.44-0.04l0,0C14.35,9.67,14.5,9.68,14.65,9.69L14.65,9.69L14.65,9.69z
	 M14.65,9.79c-0.7-0.09-1.36-0.06-2.08,0.07c-0.91,0.16-1.65,0.42-2.44,0.87c-0.05,0.03-0.11,0.07-0.16,0.1
	c-0.77,0.49-1.34,0.98-1.77,1.79c-0.63,1.18-0.47,3.06-0.64,4.39c-0.07,0.58-0.17,1.08-0.38,1.57c-0.07,0.17-0.16,0.34-0.27,0.52
	c-0.2,0.32-0.4,0.55-0.7,0.77c-0.35,0.27-0.69,0.41-1.11,0.55c-0.07,0.02-0.12,0.05-0.17,0.1c-0.05,0.05-0.09,0.1-0.12,0.17
	c-0.03,0.07-0.04,0.12-0.03,0.2c0,0.07,0.02,0.13,0.06,0.19c0.02,0.03,0.04,0.07,0.06,0.1c0.24,0.22,0.55,0.44,0.93,0.64
	c0.13,0.07,0.27,0.14,0.41,0.21c1.03,0.48,1.99,0.75,3.11,0.97c1.87,0.32,3.59,0.39,5.32,0V9.79z"/>
<path class="st3" d="M27.72,9.32c-0.18-0.36-0.51-0.61-0.95-0.58c-1.64,0.12-4.28,1.75-5.04,3.39c-0.4,0.86,0,1.42,0.87,1.36
	c0.83-0.06,2.27-0.66,3.18-0.89C27.76,12.1,28.92,11.66,27.72,9.32z"/>
<path class="st4" d="M3.06,6.52C4.28,7.72,5.99,9.43,7.8,9.5c0.46,0.02-0.08-0.95-0.73-2.62C6.52,5.46,6.42,4.73,5.41,3.54
	c-1.18-1.4-2.18-0.48-2.75,0.89C2.44,4.99,2.63,6.1,3.06,6.52z"/>
<path class="st5" d="M7.71,26.66c0.18-1.24,0.35-3.01-1.71-3.58c-0.49-0.14-1.04,0.85-1.22,1.12c-0.48,0.71-1.03,1.43-1.51,2.12
	c-0.33,0.48-1.26,2.14-0.68,2.7c0.64,0.61,3.32-0.69,3.85-1.04C6.82,27.73,7.64,27.09,7.71,26.66z"/>
<path class="st6" d="M20.89,27.51c-0.09-0.7-0.99-3.52-1.41-3.82c-0.91-0.63-3.61,0.24-3.45,0.77
	C16.65,26.56,21.66,33.8,20.89,27.51z"/>
<path class="st7" d="M15.86,7.66c0.83,0.12,2.59-4.19,2.7-5.05c0.2-1.5-1.19-2.52-2.91-2.6C14.03-0.08,13.73,7.34,15.86,7.66z"/>
</svg>
